<svg xmlns="http://www.w3.org/2000/svg" xmlns:xlink="http://www.w3.org/1999/xlink" width="512" height="512" viewBox="0 0 510 510" xml:space="preserve"><linearGradient id="g" x1="6.441" x2="426.42" y1="121.389" y2="353.878" gradientUnits="userSpaceOnUse"><stop offset="0" stop-color="#5a5a5a"/><stop offset="1" stop-color="#444"/></linearGradient><linearGradient id="a"><stop offset="0" stop-color="#433f43" stop-opacity="0"/><stop offset="1" stop-color="#1a1a1a"/></linearGradient><linearGradient xlink:href="#a" id="h" x1="32.448" x2="391.448" y1="91.188" y2="365.188" gradientUnits="userSpaceOnUse"/><linearGradient xlink:href="#a" id="i" x1="155.279" x2="109.236" y1="252.925" y2="252.925" gradientUnits="userSpaceOnUse"/><linearGradient xlink:href="#a" id="j" x1="142.374" x2="142.374" y1="71" y2="19.99" gradientUnits="userSpaceOnUse"/><linearGradient xlink:href="#a" id="k" x1="329.25" x2="360.25" y1="98.016" y2="28.016" gradientUnits="userSpaceOnUse"/><linearGradient xlink:href="#a" id="l" x1="169.056" x2="460.056" y1="221.085" y2="481.085" gradientUnits="userSpaceOnUse"/><linearGradient xlink:href="#a" id="m" x1="293.81" x2="251.81" y1="314.286" y2="280.286" gradientUnits="userSpaceOnUse"/><linearGradient xlink:href="#a" id="n" x1="290.294" x2="253.294" y1="308.057" y2="265.057" gradientUnits="userSpaceOnUse"/><linearGradient xlink:href="#a" id="o" x1="348.936" x2="348.936" y1="444" y2="498.231" gradientUnits="userSpaceOnUse"/><linearGradient xlink:href="#a" id="p" x1="142.374" x2="142.374" y1="444" y2="498.231" gradientUnits="userSpaceOnUse"/><linearGradient id="b"><stop offset="0" stop-color="#433f43" stop-opacity="0"/><stop offset="1"/></linearGradient><linearGradient xlink:href="#b" id="q" x1="323.081" x2="341.081" y1="172.246" y2="120.246" gradientUnits="userSpaceOnUse"/><linearGradient xlink:href="#b" id="r" x1="147.527" x2="116.194" y1="179.892" y2="131.892" gradientUnits="userSpaceOnUse"/><linearGradient id="c"><stop offset="0" stop-color="#81b823"/><stop offset="1" stop-color="#017b4e"/></linearGradient><linearGradient xlink:href="#c" id="s" x1="1006.991" x2="1046.734" y1="-2877.639" y2="-2877.639" gradientTransform="rotate(75 2507.162 1098.75)scale(1 -1)" gradientUnits="userSpaceOnUse"/><linearGradient id="d"><stop offset="0" stop-color="#017b4e" stop-opacity="0"/><stop offset="1" stop-color="#026841"/></linearGradient><linearGradient xlink:href="#d" id="t" x1="1036.117" x2="1020.815" y1="-2878.614" y2="-2876.975" gradientTransform="rotate(75 2507.162 1098.75)scale(1 -1)" gradientUnits="userSpaceOnUse"/><linearGradient id="e"><stop offset="0" stop-color="#bbec6c"/><stop offset="1" stop-color="#81b823"/></linearGradient><linearGradient xlink:href="#e" id="u" x1="1118.361" x2="1158.104" y1="485.306" y2="485.306" gradientTransform="rotate(165 572.138 -258.517)scale(1 -1)" gradientUnits="userSpaceOnUse"/><linearGradient id="f"><stop offset="0" stop-color="#78a91f" stop-opacity="0"/><stop offset=".163" stop-color="#73a620" stop-opacity=".163"/><stop offset=".354" stop-color="#659e24" stop-opacity=".354"/><stop offset=".559" stop-color="#4e912b" stop-opacity=".559"/><stop offset=".774" stop-color="#2d8034" stop-opacity=".774"/><stop offset=".994" stop-color="#036941" stop-opacity=".994"/><stop offset="1" stop-color="#026841"/></linearGradient><linearGradient xlink:href="#f" id="v" x1="1147.487" x2="1132.185" y1="484.331" y2="485.971" gradientTransform="rotate(165 572.138 -258.517)scale(1 -1)" gradientUnits="userSpaceOnUse"/><linearGradient xlink:href="#e" id="w" x1="106.301" x2="180.194" y1="115.467" y2="214.625" gradientUnits="userSpaceOnUse"/><linearGradient xlink:href="#e" id="x" x1="292.74" x2="378.283" y1="83.733" y2="198.524" gradientUnits="userSpaceOnUse"/><linearGradient xlink:href="#f" id="y" x1="387.997" x2="342.997" y1="154.538" y2="136.538" gradientUnits="userSpaceOnUse"/><linearGradient xlink:href="#e" id="z" x1="1710.837" x2="1811.743" y1="-1153.634" y2="-1153.634" gradientTransform="rotate(120 1337.76 180.334)scale(1 -1)" gradientUnits="userSpaceOnUse"/><linearGradient xlink:href="#f" id="A" x1="1761.29" x2="1761.29" y1="-1170.977" y2="-1042.217" gradientTransform="rotate(120 1337.76 180.334)scale(1 -1)" gradientUnits="userSpaceOnUse"/><linearGradient xlink:href="#f" id="B" x1="1761.29" x2="1761.29" y1="-1208.902" y2="-1076.164" gradientTransform="rotate(120 1337.76 180.334)scale(1 -1)" gradientUnits="userSpaceOnUse"/><linearGradient xlink:href="#f" id="C" x1="1761.29" x2="1761.29" y1="-1242.663" y2="-1142.379" gradientTransform="rotate(120 1337.76 180.334)scale(1 -1)" gradientUnits="userSpaceOnUse"/><linearGradient xlink:href="#f" id="D" x1="1784.785" x2="1745.936" y1="-1156.108" y2="-1151.946" gradientTransform="rotate(120 1337.76 180.334)scale(1 -1)" gradientUnits="userSpaceOnUse"/><linearGradient xlink:href="#b" id="E" x1="382.925" x2="345.925" y1="430.505" y2="407.505" gradientUnits="userSpaceOnUse"/><linearGradient xlink:href="#c" id="F" x1="187.589" x2="376.097" y1="404.968" y2="404.968" gradientUnits="userSpaceOnUse"/><linearGradient xlink:href="#d" id="G" x1="230.541" x2="181.096" y1="412.878" y2="430.251" gradientUnits="userSpaceOnUse"/><linearGradient id="H" x1="230.811" x2="185.778" y1="404.968" y2="404.968" gradientUnits="userSpaceOnUse"><stop offset="0" stop-color="#01525a" stop-opacity="0"/><stop offset="1" stop-color="#01525a"/></linearGradient><linearGradient xlink:href="#d" id="I" x1="268.282" x2="189.744" y1="394.16" y2="430.712" gradientUnits="userSpaceOnUse"/><linearGradient xlink:href="#d" id="J" x1="2600.978" x2="2600.978" y1="475.914" y2="621.087" gradientTransform="rotate(60 1600.058 -1528.524)" gradientUnits="userSpaceOnUse"/><linearGradient xlink:href="#d" id="K" x1="284.252" x2="262.752" y1="417.934" y2="392.933" gradientUnits="userSpaceOnUse"/><linearGradient xlink:href="#f" id="L" x1="212.741" x2="235.741" y1="129.921" y2="147.587" gradientUnits="userSpaceOnUse"/><linearGradient xlink:href="#f" id="M" x1="88.825" x2="112.171" y1="185.345" y2="231.704" gradientUnits="userSpaceOnUse"/><path fill="url(#g)" d="M440.624 438.033 297.381 218.67 410.868 76.12c5.536-7.612 6.92-15.224 6.92-20.76 0-26.988-35.983-55.36-63.663-55.36-11.072 0-20.76 4.152-28.372 15.224L196.35 198.603V32.524C196.35 9.688 169.362 0 142.374 0S88.398 9.688 88.398 32.524v440.108c0 22.144 26.988 33.216 53.976 33.216s53.975-11.072 53.975-33.216V347.381l29.064-37.368 118.331 179.919C352.741 504.464 366.58 510 381.112 510c31.14 0 65.048-26.988 65.048-53.976 0-6.228-2.076-12.455-5.536-17.991"/><path fill="url(#h)" d="M176.619 332.03a24.97 24.97 0 0 0-5.27 15.35v125.29c-1.47 2.42-11.86 8.18-28.97 8.18-17.12 0-27.51-5.76-28.98-8.18V32.52c0-.09 0-.17.01-.22 1.42-1.99 10.79-7.3 28.97-7.3 18.17 0 27.54 5.31 28.96 7.3.01.05.01.13.01.22V198.6c0 10.9 7.05 20.54 17.44 23.83a25.02 25.02 0 0 0 27.99-9.41s129.52-183.55 129.57-183.63c2.72-3.96 4.54-4.39 7.78-4.39 6.07 0 16.51 3.62 26.12 11.7 8.62 7.24 12.54 14.75 12.54 18.66 0 1.95-.64 3.87-1.9 5.72z"/><path fill="url(#i)" d="M196.349 223.6c-2.52 0-5.07-.38-7.56-1.17a24.985 24.985 0 0 1-17.44-23.83V32.52c0-.09 0-.17-.01-.22-1.42-1.99-10.79-7.3-28.96-7.3-18.18 0-27.55 5.31-28.97 7.3-.01.05-.01.13-.01.22v440.15c1.47 2.42 11.86 8.18 28.98 8.18 17.11 0 27.5-5.76 28.97-8.18V347.38c0-5.56 1.85-10.96 5.27-15.35l19.73-24.95z"/><path fill="url(#j)" d="M142.379 25c-18.18 0-27.55 5.31-28.97 7.3-.01.05-.01.13-.01.22V141h57.95V32.52c0-.09 0-.17-.01-.22-1.42-1.99-10.79-7.3-28.96-7.3"/><path fill="url(#k)" d="M380.249 36.7c-9.61-8.08-20.05-11.7-26.12-11.7-3.24 0-5.06.43-7.78 4.39-.031.049-48.82 69.193-86.512 122.61h59.152l71.9-90.92c1.26-1.85 1.9-3.77 1.9-5.72 0-3.91-3.92-11.42-12.54-18.66"/><path fill="url(#l)" d="M421.159 456.02c0 10.39-20.19 28.98-40.05 28.98-9.71 0-13.59-4.16-16.11-8.23-.12-.19-.24-.38-.37-.58 0 0-121.67-184.18-123.76-185.81l40.18-50.99 138.48 212.06c1.51 2.48 1.63 4.12 1.63 4.57"/><path fill="url(#m)" d="m281.049 239.39-40.18 50.99c1.091.851 34.767 51.446 66.712 99.62h71.82z"/><path fill="url(#n)" d="m297.381 218.67-71.968 91.343L281.966 396h131.211z"/><path fill="url(#o)" d="M343.744 489.932C352.741 504.464 366.58 510 381.112 510c31.14 0 65.048-26.988 65.048-53.976 0-6.228-2.076-12.456-5.536-17.992L383.139 350H251.712z"/><path fill="url(#p)" d="M142.374 505.848c26.988 0 53.975-11.072 53.975-33.216V350H88.399v122.632c0 22.144 26.987 33.216 53.975 33.216"/><path fill="url(#q)" d="M366.284 324.189 297.381 218.67l68.903-86.549c0-18.846-15.277-34.123-34.123-34.123h-64.819l-54.009 76.537v151.01l12.08-15.531 34.319 52.182h106.552z"/><path fill="url(#r)" d="M289.471 222.768c0-37.385-17.904-70.586-45.601-91.507l-47.52 67.342v-88.425a115 115 0 0 0-21.489-2.02c-34.507 0-65.45 15.252-86.462 39.38v150.461c21.012 24.128 51.954 39.38 86.462 39.38 11.486 0 22.573-1.697 33.035-4.841l17.518-22.523L233 321.548c33.794-19.933 56.471-56.705 56.471-98.78"/><path fill="url(#s)" d="M400.538 109.852c13.877-3.718 27.957-1.14 39.208 5.983a5.82 5.82 0 0 1 2.042 7.621c-6.182 11.794-17.087 21.067-30.964 24.785s-27.957 1.14-39.208-5.983a5.82 5.82 0 0 1-2.042-7.621c6.183-11.794 17.087-21.067 30.964-24.785"/><path fill="url(#t)" d="M441.788 123.456c-6.182 11.794-17.087 21.067-30.964 24.785s-27.957 1.14-39.208-5.983a5.8 5.8 0 0 1-2.509-3.412l73.147-19.6a5.8 5.8 0 0 1-.466 4.21"/><path fill="url(#u)" d="M103.924 101.369c3.718 13.877 1.14 27.957-5.983 39.208a5.82 5.82 0 0 1-7.621 2.042c-11.794-6.182-21.067-17.087-24.785-30.964s-1.14-27.957 5.983-39.208a5.82 5.82 0 0 1 7.621-2.042c11.794 6.183 21.067 17.087 24.785 30.964"/><path fill="url(#v)" d="M90.32 142.619c-11.794-6.182-21.067-17.087-24.785-30.964s-1.14-27.957 5.983-39.208a5.8 5.8 0 0 1 3.412-2.509l19.6 73.147a5.8 5.8 0 0 1-4.21-.466"/><path fill="url(#w)" d="m228.319 123.78 13.02 11.06-8.69 12.31-14-11.89a81.1 81.1 0 0 0-21.54-13.02c-.25-.1-.51-.2-.76-.3a81.25 81.25 0 0 0-40.55-5.05c-22.55 2.98-42.93 15.39-55.93 34.05-5.27 7.56-9.08 15.71-11.47 24.12l-.12.41c-4.04 14.4-3.831 29.52.12 43.66v34.15c-23.18-32.26-24.69-76.67-.839-110.91.23-.34.47-.67.72-1 .04-.05.08-.11.12-.16 15.41-21.46 39.2-35.72 65.44-39.19 14.41-1.9 28.95-.47 42.51 3.97.25.08.51.16.76.25a96.2 96.2 0 0 1 31.209 17.54"/><path fill="url(#x)" d="M375.779 150.48c-5.03 18.91-18.24 34.15-36.26 41.81a63.3 63.3 0 0 1-25.17 5.07l13.37-16.79c2.01-.56 3.99-1.26 5.94-2.09 13.72-5.83 23.79-17.44 27.62-31.86.9-3.38 1.43-6.79 1.58-10.2.52-11.03-2.79-21.92-9.58-30.98l-9.22-10.56-21.19-24.28 11.3-9.86 29.78 34.14 1.13 1.3c5.39 7.11 9.14 15.09 11.14 23.46 2.39 9.99 2.3 20.55-.44 30.84"/><path fill="url(#y)" d="M375.779 150.48c-5.03 18.91-18.24 34.15-36.26 41.81-8.14 3.46-16.69 5.12-25.16 5.06l13.35-16.78c2.01-.56 3.99-1.26 5.95-2.09 13.72-5.83 23.79-17.44 27.62-31.86.9-3.38 1.43-6.79 1.58-10.2.52-11.03-2.79-21.92-9.58-30.98l-9.22-10.56-21.19-24.28 11.3-9.86 29.78 34.14 1.13 1.3c5.39 7.11 9.14 15.09 11.14 23.46 2.39 9.99 2.3 20.55-.44 30.84"/><path fill="url(#z)" d="M308.253 16.821c31.589 18.238 52.239 48.145 59.65 81.132 1.687 7.508-2.67 15.055-10.016 17.348-32.274 10.075-68.499 7.145-100.088-11.092s-52.239-48.145-59.65-81.132c-1.687-7.508 2.67-15.055 10.016-17.348 32.274-10.075 68.499-7.145 100.088 11.092"/><path fill="url(#z)" d="M308.253 16.821c31.589 18.238 52.239 48.145 59.65 81.132 1.687 7.508-2.67 15.055-10.016 17.348-32.274 10.075-68.499 7.145-100.088-11.092s-52.239-48.145-59.65-81.132c-1.687-7.508 2.67-15.055 10.016-17.348 32.274-10.075 68.499-7.145 100.088 11.092"/><path fill="url(#A)" d="M257.798 104.211c6.2 3.58 12.573 6.57 19.07 8.983l6.326-3.021c30.087-14.359 59.972-14.937 83.09-1.589-23.119-13.348-37.561-39.517-40.169-72.753l-.547-6.989a125.6 125.6 0 0 0-17.315-12.023C276.664-1.419 240.441-4.348 208.165 5.727c-7.348 2.294-11.705 9.84-10.018 17.351 7.413 32.989 28.061 62.895 59.651 81.133"/><path fill="url(#B)" d="M324.229 84.303c-23.119-13.348-53.003-12.77-83.09 1.589l-5.105 2.437c-19.392-17.632-32.342-40.579-37.886-65.252-1.688-7.511 2.669-15.057 10.018-17.351 24.14-7.536 50.487-7.794 75.453.184l.442 5.639c2.607 33.237 17.049 59.407 40.168 72.754"/><path fill="url(#C)" d="M275.364 56.091c-19.033-10.989-42.652-12.53-67.194-4.723a126 126 0 0 1-10.023-28.291c-1.688-7.511 2.669-15.057 10.018-17.351A126 126 0 0 1 237.677.261c5.51 25.158 18.654 44.842 37.687 55.83"/><path fill="url(#D)" d="M357.887 115.301c-32.274 10.075-68.499 7.145-100.088-11.092s-52.238-48.145-59.65-81.132a14.74 14.74 0 0 1 1.621-10.629l166.512 96.136a14.74 14.74 0 0 1-8.395 6.717"/><path fill="url(#E)" d="m440.624 438.033-66.83-102.343-.078-.003-95.343 54.852 65.37 99.393C352.741 504.464 366.58 510 381.112 510c31.14 0 65.048-26.988 65.048-53.976 0-6.228-2.076-12.455-5.536-17.991"/><path fill="url(#F)" d="M375.443 351.007c-10.68 47.551-40.451 90.662-85.982 116.952-32.081 18.52-67.481 26.091-101.872 23.851 5.45-5.04 8.76-11.43 8.76-19.18V355.657c6.39-4.95 13.19-9.52 20.38-13.67 45.531-26.29 97.752-30.511 144.273-15.99 12.12 3.788 16.978 13.702 14.441 25.01"/><path fill="url(#G)" d="M375.443 351.007c-10.68 47.551-40.451 90.662-85.982 116.952-8.94 5.16-18.12 9.47-27.491 12.95l-9.12-4.36c-19.16-9.14-38.271-14.41-56.501-15.78V355.667a180 180 0 0 1 20.38-13.68c45.531-26.29 97.752-30.521 144.273-15.99 12.13 3.776 16.988 13.704 14.441 25.01"/><path fill="url(#H)" d="M375.443 351.007c-10.68 47.551-40.451 90.662-85.982 116.952-32.081 18.52-67.481 26.091-101.872 23.851 5.45-5.04 8.76-11.43 8.76-19.18V355.657c6.39-4.95 13.19-9.52 20.38-13.67 45.531-26.29 97.752-30.511 144.273-15.99 12.12 3.788 16.978 13.702 14.441 25.01"/><path fill="url(#I)" d="M375.45 351.01c-8 35.56-26.66 68.64-54.62 94.06l-7.35-3.52c-42.24-20.16-84.19-21.47-117.13-3.76v-.12c31.78-19.68 51.59-56.65 55.25-103.28l.64-8.13c35.99-11.5 73.97-11.13 108.77-.27 12.12 3.79 16.98 13.71 14.44 25.02"/><path fill="url(#J)" d="M264.139 398.595c27.436-15.84 61.483-18.062 96.859-6.808a181.7 181.7 0 0 0 14.448-40.781c2.54-11.304-2.318-21.227-14.44-25.011a181.7 181.7 0 0 0-42.541-7.878c-7.943 36.263-26.891 64.638-54.326 80.478"/><path fill="url(#K)" d="M375.443 351.007c-10.68 47.551-40.451 90.662-85.982 116.952-32.081 18.52-67.481 26.091-101.872 23.851 5.45-5.04 8.76-11.43 8.76-19.18v-34.901l177.367-102.042c2.591 4.48 2.947 9.91 1.727 15.32"/><path fill="url(#L)" d="M197.109 106.24c-.25-.09-.51-.17-.76-.25a96.5 96.5 0 0 0-25-4.651v15.015a81.4 81.4 0 0 1 25 5.586c.25.1.51.2.76.3a81.1 81.1 0 0 1 21.54 13.02l14 11.89 8.69-12.31-13.02-11.06a96.2 96.2 0 0 0-31.21-17.54"/><path fill="url(#M)" d="M85.804 145c-21.999 33.86-19.997 76.839 2.595 108.28v-34.15c-3.95-14.14-4.159-29.26-.12-43.66l.12-.41c2.39-8.41 6.2-16.56 11.47-24.12a81 81 0 0 1 4.588-5.94z"/></svg>